<svg width="24" height="24" viewBox="0 0 24 24" fill="none" xmlns="http://www.w3.org/2000/svg" plerdy-tracking-id="34908615501">
                <path d="M11.6238 2.06372C17.1108 2.06372 21.5602 6.51312 21.5602 12.0001C21.5602 17.487 17.1108 21.9364 11.6238 21.9364C6.13689 21.9364 1.6875 17.487 1.6875 12.0001C1.6875 6.51312 6.13689 2.06372 11.6238 2.06372Z" fill="#003F57"></path>
                <path d="M11.625 2C6.10622 2 1.625 6.47486 1.625 12C1.625 17.5251 6.09986 22 11.625 22C17.1501 22 21.625 17.5251 21.625 12C21.625 6.47486 17.1501 2 11.625 2ZM11.625 20.8988C6.71093 20.8988 2.72621 16.9141 2.72621 12C2.72621 7.08593 6.71093 3.10121 11.625 3.10121C16.5391 3.10121 20.5238 7.08593 20.5238 12C20.5238 16.9141 16.5391 20.8988 11.625 20.8988Z" fill="#4EA524"></path>
                <path d="M15.1222 9.7276L12.8943 13.0312H15.1222V9.7276ZM15.9624 8.39087V13.0376H16.9427V13.8778H15.9624V15.6156H15.1158V13.8778H11.9649V12.9739L15.1413 8.39723L15.9624 8.39087ZM11.0356 14.769V15.6092H6.3125V15.5837C6.35706 14.7944 6.56075 14.2152 6.9554 13.7378C7.27367 13.3431 7.66196 13.0503 8.45763 12.5538C8.45763 12.5538 8.73771 12.3756 8.82046 12.3247C9.24694 12.051 9.52065 11.8345 9.74343 11.5863C10.0171 11.268 10.1572 10.9243 10.1572 10.5169C10.1572 9.7276 9.59703 9.18654 8.79499 9.18654C7.85929 9.18654 7.38188 9.89946 7.35642 10.9625V10.9816H6.51619V10.9625L6.50983 10.7715C6.50983 9.34568 7.43917 8.39087 8.83955 8.39087C10.2081 8.39087 11.0993 9.21837 11.0993 10.4978C11.0993 11.1534 10.8637 11.6818 10.4118 12.1464C10.0744 12.5029 9.72434 12.7384 8.9414 13.2158C8.92867 13.2222 8.9223 13.2286 8.90957 13.2349C8.87138 13.254 8.69951 13.3559 8.65496 13.3877C8.2794 13.6105 8.05025 13.7696 7.84655 13.9606C7.5983 14.1961 7.43281 14.4571 7.35642 14.7626H11.0356V14.769Z" fill="white"></path>
            </svg>