<svg width="18" height="14" viewBox="0 0 18 14" fill="none" xmlns="http://www.w3.org/2000/svg">
<path fill-rule="evenodd" clip-rule="evenodd" d="M17.4 1.76448C16.7686 2.03985 16.1009 2.22189 15.4176 2.30493C16.1385 1.872 16.6787 1.19092 16.938 0.38804C16.2606 0.793427 15.519 1.07905 14.7456 1.23248C13.6823 0.0733014 11.9742 -0.217208 10.5908 0.525845C9.20737 1.2689 8.49812 2.8578 8.86561 4.39071C6.09559 4.24986 3.51541 2.93299 1.76761 0.76804C1.46448 1.30018 1.3052 1.90282 1.30561 2.51604C1.30342 3.67269 1.87732 4.75364 2.83441 5.3956C2.28671 5.38062 1.75071 5.23287 1.27201 4.96493V5.00715C1.28047 6.65211 2.43913 8.06398 4.04401 8.38493C3.74434 8.47661 3.43322 8.52494 3.12001 8.52849C2.90319 8.52594 2.68692 8.50617 2.47321 8.46937C2.92763 9.87634 4.21919 10.8391 5.69041 10.8676C4.47846 11.8263 2.98215 12.3495 1.44001 12.3538C1.15922 12.3547 0.878664 12.3378 0.600006 12.3032C2.17453 13.3251 4.00941 13.8677 5.88361 13.8654C8.49623 13.8926 11.0101 12.8631 12.86 11.0082C14.7098 9.1533 15.7404 6.62877 15.72 4.00226C15.72 3.85871 15.72 3.70671 15.72 3.55471C16.3791 3.06055 16.9476 2.45475 17.4 1.76448Z" fill="#2F302C"/>
</svg>
