<svg width="20" height="20" viewBox="0 0 20 20" fill="none" xmlns="http://www.w3.org/2000/svg">
<path d="M10 0.833008C4.93758 0.833008 0.833328 4.93389 0.833328 9.99214C0.833328 13.8744 3.24759 17.1913 6.65774 18.5256C6.57475 17.8019 6.50685 16.6862 6.68792 15.8947C6.8539 15.1785 7.75925 11.3415 7.75925 11.3415C7.75925 11.3415 7.48765 10.7912 7.48765 9.9846C7.48765 8.71061 8.22702 7.76078 9.14746 7.76078C9.93209 7.76078 10.3093 8.34877 10.3093 9.04984C10.3093 9.83383 9.81138 11.0098 9.54732 12.1029C9.32853 13.015 10.0075 13.7613 10.9053 13.7613C12.535 13.7613 13.7874 12.0426 13.7874 9.56999C13.7874 7.37632 12.2106 5.84603 9.95473 5.84603C7.3443 5.84603 5.81275 7.79847 5.81275 9.81875C5.81275 10.6027 6.11454 11.447 6.49176 11.9069C6.56721 11.9973 6.57476 12.0803 6.55212 12.1707C6.48422 12.4572 6.32578 13.0829 6.29561 13.211C6.25788 13.3769 6.1598 13.4146 5.98628 13.3316C4.8395 12.7964 4.12277 11.1304 4.12277 9.78106C4.12277 6.89386 6.22016 4.24035 10.1811 4.24035C13.3573 4.24035 15.832 6.50187 15.832 9.5323C15.832 12.6909 13.8402 15.2313 11.0789 15.2313C10.1509 15.2313 9.27571 14.7489 8.98148 14.1759C8.98148 14.1759 8.52126 15.9248 8.40809 16.3545C8.20438 17.1536 7.64609 18.1487 7.26886 18.7593C8.12894 19.0231 9.03429 19.1663 9.98491 19.1663C15.0473 19.1663 19.1516 15.0655 19.1516 10.0072C19.1667 4.93388 15.0624 0.833008 10 0.833008Z" fill="#2F302C"/>
</svg>
