<svg width="18" height="18" viewBox="0 0 18 18" fill="none" xmlns="http://www.w3.org/2000/svg">
<path fill-rule="evenodd" clip-rule="evenodd" d="M16.476 0.599609H1.52401C1.01369 0.599609 0.600006 1.0133 0.600006 1.52361V16.4756C0.600006 16.7207 0.697356 16.9557 0.870639 17.129C1.04392 17.3023 1.27895 17.3996 1.52401 17.3996H9.57121V10.8896H7.38721V8.36961H9.57121V6.47961C9.47963 5.58141 9.7897 4.68866 10.4183 4.04059C11.0469 3.39253 11.9298 3.05542 12.8304 3.11961C13.4842 3.11559 14.1377 3.14924 14.7876 3.22041V5.48841H13.452C12.3936 5.48841 12.192 5.99241 12.192 6.72321V8.34441H14.712L14.3844 10.8644H12.192V17.3996H16.476C16.7211 17.3996 16.9561 17.3023 17.1294 17.129C17.3027 16.9557 17.4 16.7207 17.4 16.4756V1.52361C17.4 1.27855 17.3027 1.04353 17.1294 0.870243C16.9561 0.696959 16.7211 0.599609 16.476 0.599609Z" fill="#2F302C"/>
</svg>
